<svg width="34" height="38" viewBox="0 0 34 38" fill="none" xmlns="http://www.w3.org/2000/svg">
<path fill-rule="evenodd" clip-rule="evenodd" d="M1.75726 7.86077C1.75118 8.0296 1.74524 8.19434 1.76928 8.32354C1.85767 8.79867 1.85466 9.32829 1.85184 9.8256C1.85152 9.88207 1.8512 9.93812 1.85102 9.99362L1.85086 10.0813C1.85086 10.5182 1.8676 10.9508 1.88431 11.3828C1.90097 11.8137 1.91761 12.244 1.91761 12.6772C1.91761 13.241 1.97194 13.8128 2.02624 14.3843C2.06423 14.7842 2.10222 15.1841 2.12158 15.581C2.13321 15.8195 2.14574 16.0576 2.15826 16.2956C2.20487 17.1816 2.25137 18.0658 2.25137 18.9593C2.25137 19.7369 2.17584 20.5171 2.10024 21.2978C1.99492 22.3857 1.88949 23.4746 1.98807 24.5591C2.03321 25.0556 2.0477 25.5556 2.06221 26.0559C2.07499 26.4969 2.08778 26.9381 2.12158 27.3775C2.15611 27.8264 2.15211 28.2835 2.14811 28.7411C2.14252 29.3806 2.13692 30.021 2.23654 30.6409C2.38867 31.5875 2.38698 32.5213 2.38525 33.4738C2.38506 33.5751 2.38488 33.6765 2.38488 33.7783C2.38488 34.1486 2.35144 34.5163 2.31803 34.8836C2.28469 35.2502 2.25137 35.6165 2.25137 35.9848C2.25137 36.0143 2.24731 36.0594 2.24252 36.1125C2.22387 36.3196 2.19423 36.6486 2.3515 36.6486H2.85214C3.01985 36.6486 3.18256 36.5982 3.34497 36.5479C3.49615 36.501 3.64706 36.4543 3.8015 36.4483C4.09114 36.4372 4.37364 36.3429 4.65666 36.2484C4.93724 36.1548 5.21833 36.061 5.50738 36.0478C5.81279 36.0339 6.1266 36.0333 6.44215 36.0327C6.94099 36.0318 7.44416 36.0308 7.92528 35.9774C8.0241 35.9664 8.12286 35.9553 8.22158 35.9442C9.24984 35.8289 10.2738 35.7141 11.3148 35.7141C12.9529 35.7141 14.6789 35.4654 16.2359 34.9464C16.5401 34.845 16.8447 34.7358 17.15 34.6264C17.7738 34.4028 18.4008 34.178 19.0358 34.0156C19.2185 33.9689 19.4144 33.9256 19.6164 33.8811C20.3199 33.7259 21.0963 33.5547 21.6391 33.1627C21.9438 32.9426 22.2685 32.7473 22.5941 32.5515C23.1068 32.2432 23.6217 31.9334 24.0644 31.5235C24.1424 31.4513 24.2366 31.4042 24.3309 31.357C24.4254 31.3097 24.52 31.2624 24.5984 31.1898C24.8106 30.9933 25.0933 30.8152 25.3438 30.6743C25.4918 30.5911 25.6274 30.4955 25.7621 30.4006C25.9812 30.2463 26.1977 30.0938 26.4601 29.9994C27.1096 29.7655 27.6898 29.3544 28.2604 28.9502C28.5183 28.7675 28.7743 28.5862 29.0337 28.4233C29.7093 27.9991 30.1587 27.5202 30.5245 26.799C30.6501 26.5513 30.7882 26.3091 30.9264 26.0667C31.1672 25.6442 31.4085 25.2209 31.5851 24.7668C31.9054 23.9432 32.2189 23.0989 32.3713 22.2302C32.3956 22.0918 32.4231 21.958 32.4505 21.8252C32.4975 21.5966 32.5439 21.3714 32.5716 21.1325C32.6118 20.7851 32.6137 20.4367 32.6155 20.0883C32.6173 19.7475 32.6191 19.4067 32.6569 19.0669C32.8017 17.7633 32.4935 16.4192 32.1936 15.1108C32.0897 14.6577 31.9868 14.2089 31.904 13.7675C31.8346 13.3972 31.783 13.0196 31.7312 12.6414C31.6508 12.0533 31.5701 11.4636 31.422 10.8972C31.3343 10.5619 31.2732 10.2273 31.2124 9.89423C31.1114 9.34114 31.0113 8.7925 30.7915 8.25308C30.7632 8.18354 30.7357 8.11517 30.7086 8.04789C30.4329 7.36263 30.2031 6.79142 29.6196 6.27277C29.3274 6.01296 29.037 5.74966 28.7472 5.48691C28.5706 5.32683 28.3943 5.16695 28.2179 5.00819C27.2058 4.09733 25.9591 3.57215 24.7097 3.07239C24.3975 2.94751 24.0725 2.86219 23.7476 2.7769C23.3834 2.68129 23.0193 2.58573 22.6737 2.43454C22.5688 2.38861 22.4636 2.34228 22.3583 2.29587C21.8508 2.07228 21.339 1.84678 20.8232 1.65576C20.7651 1.63424 20.7064 1.61217 20.6473 1.58992C20.1615 1.40719 19.6425 1.21196 19.1248 1.20333C18.811 1.1981 18.4841 1.1507 18.1551 1.10297C17.6416 1.02848 17.1228 0.953229 16.6401 1.03646C15.8271 1.17663 15.0132 1.14002 14.1974 1.10332C13.8254 1.08659 13.4529 1.06983 13.08 1.06983C12.8667 1.06983 12.6567 1.06718 12.4476 1.06453C12.0325 1.05929 11.6213 1.05409 11.1961 1.06983C10.9984 1.07716 10.8011 1.08623 10.6039 1.09531C10.1553 1.11595 9.70691 1.13658 9.25291 1.13658C8.73573 1.13658 8.22678 1.16989 7.71726 1.20323C7.20664 1.23664 6.69546 1.27009 6.1749 1.27009C5.36384 1.27009 4.49954 1.61139 3.82375 2.04144C3.32185 2.36084 2.72572 2.57136 2.11787 2.60513C1.80494 2.62251 1.5634 2.7733 1.3836 2.98413C1.20079 3.19847 1.0818 3.47486 1.01646 3.7362C0.960937 3.95831 1.05579 4.15144 1.15325 4.34989C1.23415 4.51462 1.31685 4.68301 1.31685 4.87469C1.31685 5.18516 1.29646 5.48882 1.27613 5.79182C1.26678 5.93106 1.25744 6.07017 1.2501 6.20973C1.2325 6.544 1.3428 6.97449 1.56902 7.22584C1.66038 7.32735 1.71774 7.46571 1.7628 7.61212C1.76329 7.69349 1.76026 7.77763 1.75726 7.86077ZM13.4398 13.7185C13.412 13.9365 13.3843 14.154 13.3843 14.3655C13.3843 14.4102 13.3844 14.4555 13.3849 14.5011C13.3638 14.5539 13.3406 14.6061 13.3155 14.6581C13.2664 14.7598 13.331 14.9418 13.4089 15.0745C13.4213 15.2217 13.4394 15.3673 13.4658 15.5071C13.4747 15.5544 13.483 15.6018 13.4908 15.6492C13.4879 15.6629 13.4849 15.6766 13.482 15.6903C13.4561 15.8115 13.4301 15.9331 13.4301 16.0587C13.4301 16.1434 13.4645 16.2197 13.4989 16.296C13.5332 16.3723 13.5676 16.4487 13.5676 16.5335V17.548C13.5676 17.6419 13.5804 17.7192 13.6065 17.7941C13.612 18.149 13.6228 18.5034 13.6568 18.855C13.6841 19.1376 13.6506 19.4162 13.6171 19.6945C13.5924 19.9005 13.5676 20.1062 13.5676 20.3131C13.5676 20.5637 13.579 20.8173 13.5905 21.0716C13.602 21.3273 13.6135 21.5836 13.6135 21.8384C13.6135 22.1191 13.57 22.4065 13.4861 22.673C13.4305 22.8499 13.4469 23.0724 13.4624 23.2809C13.4693 23.3738 13.4759 23.4639 13.4759 23.5459C13.4759 23.5901 13.4744 23.6377 13.4729 23.6871C13.4669 23.8748 13.4601 24.0891 13.532 24.2414C13.7125 24.6238 14.1612 24.6202 14.5854 24.6167C14.7955 24.615 14.9996 24.6134 15.1621 24.6587C15.8807 24.8592 16.6942 24.6101 17.35 24.3685C17.6424 24.2608 17.9087 24.1046 18.1749 23.9485C18.3646 23.8372 18.5542 23.726 18.7534 23.6323C19.3303 23.3606 19.9158 23.0273 20.3962 22.6202C20.7236 22.3428 21.0606 21.8948 21.2902 21.541C21.5777 21.098 21.8213 20.6698 22.0492 20.2028C22.2864 19.7168 22.3414 18.9916 22.2683 18.4665C22.1735 17.786 22.043 17.1004 21.82 16.4472C21.3879 15.1816 20.4736 14.2621 19.3901 13.4686C18.401 12.7442 17.4951 12.0853 16.2547 11.8258C15.7441 11.719 15.1944 11.728 14.6538 11.7369C14.5047 11.7394 14.3562 11.7419 14.2095 11.7419C13.8538 11.7419 13.7976 11.8648 13.6917 12.0965C13.669 12.146 13.6441 12.2005 13.6135 12.2599C13.4682 12.5414 13.4301 12.8442 13.4301 13.1568V13.4902C13.4301 13.5297 13.4406 13.5662 13.4545 13.6021C13.4497 13.6409 13.4447 13.6797 13.4398 13.7185Z" fill="#0284C7"/>
<path d="M1.85102 9.99362C1.8512 9.93812 1.85152 9.88207 1.85184 9.8256C1.85466 9.32829 1.85767 8.79867 1.76928 8.32354C1.74524 8.19434 1.75118 8.0296 1.75726 7.86077C1.76026 7.77763 1.76329 7.69349 1.7628 7.61212M1.85102 9.99362L1.85086 10.0813C1.85086 10.5182 1.8676 10.9508 1.88431 11.3828C1.90097 11.8137 1.91761 12.244 1.91761 12.6772C1.91761 13.241 1.97194 13.8128 2.02624 14.3843C2.06423 14.7842 2.10222 15.1841 2.12158 15.581C2.13321 15.8195 2.14574 16.0576 2.15826 16.2956C2.20487 17.1816 2.25137 18.0658 2.25137 18.9593C2.25137 19.7369 2.17584 20.5171 2.10024 21.2978C1.99492 22.3857 1.88949 23.4746 1.98807 24.5591C2.03321 25.0556 2.0477 25.5556 2.06221 26.0559C2.07499 26.4969 2.08778 26.9381 2.12158 27.3775C2.15611 27.8264 2.15211 28.2835 2.14811 28.7411C2.14252 29.3806 2.13692 30.021 2.23654 30.6409C2.38867 31.5875 2.38698 32.5213 2.38525 33.4738C2.38506 33.5751 2.38488 33.6765 2.38488 33.7783C2.38488 34.1486 2.35144 34.5163 2.31803 34.8836C2.28469 35.2502 2.25137 35.6165 2.25137 35.9848C2.25137 36.0143 2.24731 36.0594 2.24252 36.1125C2.22387 36.3196 2.19423 36.6486 2.3515 36.6486H2.85214C3.01985 36.6486 3.18256 36.5982 3.34497 36.5479C3.49615 36.501 3.64706 36.4543 3.8015 36.4483C4.09114 36.4372 4.37364 36.3429 4.65666 36.2484C4.93724 36.1548 5.21833 36.061 5.50738 36.0478C5.81279 36.0339 6.1266 36.0333 6.44215 36.0327C6.94099 36.0318 7.44416 36.0308 7.92528 35.9774C8.0241 35.9664 8.12286 35.9553 8.22158 35.9442C9.24984 35.8289 10.2738 35.7141 11.3148 35.7141C12.9529 35.7141 14.6789 35.4654 16.2359 34.9464C16.5401 34.845 16.8447 34.7358 17.15 34.6264C17.7738 34.4028 18.4008 34.178 19.0358 34.0156C19.2185 33.9689 19.4144 33.9256 19.6164 33.8811C20.3199 33.7259 21.0963 33.5547 21.6391 33.1627C21.9438 32.9426 22.2685 32.7473 22.5941 32.5515C23.1068 32.2432 23.6217 31.9334 24.0644 31.5235C24.1424 31.4513 24.2366 31.4042 24.3309 31.357C24.4254 31.3097 24.52 31.2624 24.5984 31.1898C24.8106 30.9933 25.0933 30.8152 25.3438 30.6743C25.4918 30.5911 25.6274 30.4955 25.7621 30.4006C25.9812 30.2463 26.1977 30.0938 26.4601 29.9994C27.1096 29.7655 27.6898 29.3544 28.2604 28.9502C28.5183 28.7675 28.7743 28.5862 29.0337 28.4233C29.7093 27.9991 30.1587 27.5202 30.5245 26.799C30.6501 26.5513 30.7882 26.3091 30.9264 26.0667C31.1672 25.6442 31.4085 25.2209 31.5851 24.7668C31.9054 23.9432 32.2189 23.0989 32.3713 22.2302C32.3956 22.0918 32.4231 21.958 32.4505 21.8252C32.4975 21.5966 32.5439 21.3714 32.5716 21.1325C32.6118 20.7851 32.6137 20.4367 32.6155 20.0883C32.6173 19.7475 32.6191 19.4067 32.6569 19.0669C32.8017 17.7633 32.4935 16.4192 32.1936 15.1108C32.0897 14.6577 31.9868 14.2089 31.904 13.7675C31.8346 13.3972 31.783 13.0196 31.7312 12.6414C31.6508 12.0533 31.5701 11.4636 31.422 10.8972C31.3343 10.5619 31.2732 10.2273 31.2124 9.89423C31.1114 9.34114 31.0113 8.7925 30.7915 8.25308C30.7632 8.18354 30.7357 8.11517 30.7086 8.04789C30.4329 7.36263 30.2031 6.79142 29.6196 6.27277C29.3274 6.01296 29.037 5.74966 28.7472 5.48691C28.5706 5.32683 28.3943 5.16695 28.2179 5.00819C27.2058 4.09733 25.9591 3.57215 24.7097 3.07239C24.3975 2.94751 24.0725 2.86219 23.7476 2.7769C23.3834 2.68129 23.0193 2.58573 22.6737 2.43454C22.5688 2.38861 22.4636 2.34228 22.3583 2.29587C21.8508 2.07228 21.339 1.84678 20.8232 1.65576C20.7651 1.63424 20.7064 1.61217 20.6473 1.58992C20.1615 1.40719 19.6425 1.21196 19.1248 1.20333C18.811 1.1981 18.4841 1.1507 18.1551 1.10297C17.6416 1.02848 17.1228 0.953229 16.6401 1.03646C15.8271 1.17663 15.0132 1.14002 14.1974 1.10332C13.8254 1.08659 13.4529 1.06983 13.08 1.06983C12.8667 1.06983 12.6567 1.06718 12.4476 1.06453C12.0325 1.05929 11.6213 1.05409 11.1961 1.06983C10.9984 1.07716 10.8011 1.08623 10.6039 1.09531C10.1553 1.11595 9.70691 1.13658 9.25291 1.13658C8.73573 1.13658 8.22678 1.16989 7.71726 1.20323C7.20664 1.23664 6.69546 1.27009 6.1749 1.27009C5.36384 1.27009 4.49954 1.61139 3.82375 2.04144C3.32185 2.36084 2.72572 2.57136 2.11787 2.60513C1.80494 2.62251 1.5634 2.7733 1.3836 2.98413M1.85102 9.99362C1.93341 9.81013 2.01565 9.62978 2.11787 9.4509C2.14075 9.41086 2.16201 9.37623 2.18147 9.34454C2.26737 9.2046 2.31813 9.12193 2.31813 8.88351C2.31813 8.69186 2.21032 8.55911 2.10165 8.42532C2.03078 8.33805 1.95954 8.25034 1.91761 8.14553C1.88059 8.05298 1.85233 7.94396 1.82313 7.83132C1.80428 7.7586 1.78504 7.68438 1.7628 7.61212M1.85102 9.99362C1.84558 10.0057 1.84014 10.0179 1.8347 10.03C1.79197 10.1253 1.74884 10.2214 1.70252 10.3187C1.54109 10.6577 1.60663 10.8837 1.69455 11.187C1.70083 11.2087 1.70722 11.2307 1.71365 11.2532C1.76624 11.4373 1.76124 11.6463 1.75626 11.8545C1.74894 12.1606 1.74167 12.4647 1.91761 12.6847M1.3836 2.98413C1.20079 3.19847 1.0818 3.47486 1.01646 3.7362C0.960937 3.95831 1.05579 4.15144 1.15325 4.34989C1.23415 4.51462 1.31685 4.68301 1.31685 4.87469C1.31685 5.18516 1.29646 5.48882 1.27613 5.79182C1.26678 5.93106 1.25744 6.07017 1.2501 6.20973C1.2325 6.544 1.3428 6.97449 1.56902 7.22584C1.66038 7.32735 1.71774 7.46571 1.7628 7.61212M1.3836 2.98413V2.67188M1.3836 2.98413V4.42226C1.3836 4.64688 1.41657 4.86908 1.44974 5.09263C1.48332 5.31892 1.5171 5.54658 1.5171 5.77955C1.5171 5.9695 1.55737 6.2675 1.61723 6.44707C1.6515 6.54988 1.6447 6.66795 1.63793 6.78549C1.62984 6.92598 1.62179 7.06569 1.68398 7.17763C1.74585 7.28899 1.76179 7.44472 1.7628 7.61212M13.3849 14.5011C13.3844 14.4555 13.3843 14.4102 13.3843 14.3655C13.3843 14.154 13.412 13.9365 13.4398 13.7185C13.4447 13.6797 13.4497 13.6409 13.4545 13.6021M13.3849 14.5011C13.3638 14.5539 13.3406 14.6061 13.3155 14.6581C13.2664 14.7598 13.331 14.9418 13.4089 15.0745M13.3849 14.5011C13.3867 14.6888 13.3929 14.883 13.4089 15.0745M13.3849 14.5011C13.4708 14.2863 13.5218 14.0636 13.5218 13.8235C13.5218 13.7594 13.498 13.7044 13.4747 13.6505C13.4677 13.6343 13.4607 13.6183 13.4545 13.6021M13.4089 15.0745C13.4213 15.2217 13.4394 15.3673 13.4658 15.5071C13.4747 15.5544 13.483 15.6018 13.4908 15.6492M13.4089 15.0745C13.4379 15.1238 13.4688 15.1663 13.4963 15.1953C13.5805 15.2839 13.565 15.3333 13.5425 15.4048C13.5341 15.4315 13.5247 15.4614 13.5192 15.4975C13.5115 15.5482 13.5014 15.5987 13.4908 15.6492M13.4908 15.6492C13.4879 15.6629 13.4849 15.6766 13.482 15.6903C13.4561 15.8115 13.4301 15.9331 13.4301 16.0587C13.4301 16.1434 13.4645 16.2197 13.4989 16.296C13.5332 16.3723 13.5676 16.4487 13.5676 16.5335V17.548C13.5676 17.6419 13.5804 17.7192 13.6065 17.7941M13.4908 15.6492C13.589 16.2509 13.5958 16.8635 13.6025 17.4762C13.6037 17.5822 13.6049 17.6882 13.6065 17.7941M13.6065 17.7941C13.612 18.149 13.6228 18.5034 13.6568 18.855C13.6841 19.1376 13.6506 19.4162 13.6171 19.6945C13.5924 19.9005 13.5676 20.1062 13.5676 20.3131C13.5676 20.5637 13.579 20.8173 13.5905 21.0716C13.602 21.3273 13.6135 21.5836 13.6135 21.8384C13.6135 22.1191 13.57 22.4065 13.4861 22.673C13.4305 22.8499 13.4469 23.0724 13.4624 23.2809C13.4693 23.3738 13.4759 23.4639 13.4759 23.5459C13.4759 23.5901 13.4744 23.6377 13.4729 23.6871C13.4669 23.8748 13.4601 24.0891 13.532 24.2414C13.7125 24.6238 14.1612 24.6202 14.5854 24.6167C14.7955 24.615 14.9996 24.6134 15.1621 24.6587C15.8807 24.8592 16.6942 24.6101 17.35 24.3685C17.6424 24.2608 17.9087 24.1046 18.1749 23.9485C18.3646 23.8372 18.5542 23.726 18.7534 23.6323C19.3303 23.3606 19.9158 23.0273 20.3962 22.6202C20.7236 22.3428 21.0606 21.8948 21.2902 21.541C21.5777 21.098 21.8213 20.6698 22.0492 20.2028C22.2864 19.7168 22.3414 18.9916 22.2683 18.4665C22.1735 17.786 22.043 17.1004 21.82 16.4472C21.3879 15.1816 20.4736 14.2621 19.3901 13.4686C18.401 12.7442 17.4951 12.0853 16.2547 11.8258C15.7441 11.719 15.1944 11.728 14.6538 11.7369C14.5047 11.7394 14.3562 11.7419 14.2095 11.7419C13.8538 11.7419 13.7976 11.8648 13.6917 12.0965C13.669 12.146 13.6441 12.2005 13.6135 12.2599C13.4682 12.5414 13.4301 12.8442 13.4301 13.1568V13.4902C13.4301 13.5297 13.4406 13.5662 13.4545 13.6021M13.6065 17.7941C13.631 17.8644 13.6671 17.9327 13.7154 18.0108C13.804 18.1544 13.772 18.3042 13.7382 18.4623C13.7252 18.5232 13.7119 18.5853 13.7052 18.6487M13.4545 13.6021C13.489 13.3227 13.5155 13.0441 13.4759 12.7779" stroke="black" stroke-width="2" stroke-linecap="round"/>
</svg>
