<svg viewBox="0 0 77 81" xmlns="http://www.w3.org/2000/svg">
<path d="M28.6996 46.6276C29.8173 47.3727 30.9545 48.0912 32.1026 48.7901C33.345 49.4271 34.6063 49.8761 36.092 50.4476C38.5073 51.3765 40.7746 52.7464 43.2957 53.4187C45.4146 53.9837 47.0146 54.4798 49.2026 54.4798C50.2556 54.4798 51.3611 54.5728 52.4095 54.468C55.4229 54.1666 58.5139 54.5376 61.5232 54.1614C64.7017 53.7641 66.5259 53.4022 68.8095 51.0371C70.8404 48.9336 72.2557 45.7354 73.4273 43.0879L73.4783 42.9727C74.6119 40.4116 75.9778 37.5373 75.9778 34.6725C75.9778 32.9079 75.778 31.1455 75.4473 29.4259C74.5923 24.98 74.5641 20.425 72.9006 16.1738C72.2094 14.4073 71.077 12.3281 69.7762 10.9272C68.7413 9.81272 67.7324 8.84118 66.6391 7.78834L66.5929 7.74392C65.2615 6.46178 63.3998 5.31026 61.759 4.48986C60.4142 3.81747 59.02 3.5543 57.6207 3.0161C54.7682 1.91898 51.5885 1 48.507 1C46.0216 1 43.266 1.05611 40.9141 1.89605C40.0419 2.20755 39.3239 2.27333 38.4029 2.27333C37.3838 2.27333 36.4481 2.57436 35.4436 2.68598C33.9706 2.84964 32.7571 3.71678 31.2934 3.98289C30.491 4.12879 29.7631 4.76823 28.9826 4.98505C27.9664 5.26733 27.1614 5.66278 26.2237 6.14047C24.3215 7.10954 22.5531 8.40842 21.2247 10.0784C19.3408 12.4468 18.4682 15.3675 17.8174 18.296C17.5094 19.6821 17.3458 21.3527 16.9331 22.6937C16.4706 24.197 15.5216 26.1748 15.7188 27.7517C15.929 29.4337 16.4707 31.0273 17.4047 32.4559C18.0549 33.4502 19.1464 34.6706 19.4798 35.8043C20.366 38.8175 22.6543 41.2128 24.7264 43.4443C25.748 44.5445 27.4411 45.7886 28.6996 46.6276Z" fill="#F21313"/>
<path d="M21.2768 22.1482C21.235 23.1167 21.2265 24.0869 21.2265 25.0642C21.2265 26.0606 21.3772 26.9847 21.4121 27.962C21.4392 28.7206 21.8483 29.4901 21.8762 30.241C21.9135 31.2499 22.4257 32.5786 23.0827 33.3295C24.1077 34.5009 25.2803 35.5268 26.2382 36.7583C26.8344 37.5248 27.3847 38.3246 28.0016 39.0786C28.6336 39.851 29.4589 40.4882 30.1879 41.1668C31.4371 42.33 32.9404 43.1786 34.452 43.9512C35.6655 44.5714 36.8587 45.2226 38.0716 45.8486C38.5091 46.0745 39.0129 46.1871 39.438 46.4313C39.8782 46.6842 40.2897 47.0015 40.7631 47.1944C40.932 47.2632 41.9535 47.6585 41.8098 47.5037C41.3417 46.9996 41.015 46.4305 40.5311 45.9466C40.1844 45.5999 39.8595 45.2566 39.5102 44.9257C38.7492 44.2048 37.7814 43.6845 37.0249 42.956C36.0592 42.0261 35.1638 41.0434 34.22 40.0995C33.4542 39.3338 32.8024 38.5023 31.8997 37.8721C31.1532 37.3509 30.6872 36.5385 30.1363 35.8302C29.6124 35.1567 29.1533 34.4906 28.6874 33.7781C28.3795 33.3071 28.1146 32.8026 27.7232 32.3962C27.3764 32.0361 26.9652 31.6085 26.759 31.1485C26.3746 30.2908 25.8492 29.5063 25.4906 28.6323C25.0929 27.6629 24.8698 26.5925 24.3872 25.6675C23.6653 24.2839 23.4525 22.7355 22.4846 21.491C21.9834 20.8466 21.5634 21.5095 21.2768 22.1482Z" fill="#FFA2A2"/>
<path fill-rule="evenodd" clip-rule="evenodd" d="M26.0261 46.5596C25.9357 46.8439 25.8472 47.1282 25.7607 47.4127L25.7711 47.3976C26.1192 46.8947 26.5044 46.2107 26.7461 45.6473C26.4405 45.7793 26.1719 46.1013 26.0261 46.5596Z" fill="#B11D1D"/>
<path d="M25.1225 49.0298C24.6854 50.029 24.3949 51.06 24.0295 52.083C23.8092 52.6999 23.5312 53.2479 23.2207 53.8172C22.9484 54.3164 22.9327 54.89 22.6232 55.4057C22.0011 56.4426 21.7007 57.5568 21.1731 58.6119C20.7733 59.4115 20.0885 60.1844 19.7741 61.0019C19.507 61.6964 18.9936 62.0447 18.4916 62.5467C18.1033 62.935 18.0157 63.4941 17.7338 63.9603C17.2255 64.8011 16.729 65.7472 16.393 66.671C16.0451 67.6279 15.3991 68.7021 15.2199 69.6877C15.047 70.6386 14.5481 71.6663 14.0322 72.4858C13.7969 72.8594 13.5826 73.3527 13.3763 73.7537C13.2118 74.0736 13.1688 74.4164 13.0412 74.7447C12.9706 74.926 12.7414 75.0923 12.7205 75.2693C12.6691 75.7068 12.2312 75.9471 12.072 76.3186C11.9974 76.4926 11.5712 77.0996 11.9336 76.6465C12.2872 76.2045 12.7853 75.8602 13.2452 75.5317C14.4682 74.6581 15.6939 73.8116 16.7574 72.7481C17.3143 72.1912 17.8269 71.5214 18.3678 70.9264C18.7683 70.4859 19.1731 70.0236 19.5409 69.5638C19.9178 69.0928 20.5653 68.7754 20.9837 68.3105C22.4895 66.6374 23.9788 65.0603 25.5816 63.4576C26.9678 62.0714 28.6535 60.9831 30.0338 59.6029C30.962 58.6747 31.8715 57.606 32.9193 56.8048C34.1402 55.8712 35.1901 54.5213 36.1205 53.3251L36.1401 53.2999C36.518 52.814 36.8999 52.2983 37.3497 51.8935C37.6586 51.6154 37.8337 51.7218 37.408 51.296C37.1857 51.0737 36.996 50.7336 36.723 50.5819C35.4719 49.8869 34.0923 49.4654 32.7226 49.161C31.525 48.8949 29.9308 48.6041 29.2177 47.4632C28.911 46.9726 28.2197 46.7078 27.9352 46.2099C27.6009 45.6248 27.1423 45.4763 26.7461 45.6473C26.5044 46.2107 26.1192 46.8947 25.7711 47.3976L25.7607 47.4127C25.4334 47.8957 25.3552 48.4981 25.1225 49.0298Z" fill="#979797"/>
<path d="M1 72.8101C0.447715 72.8101 0 73.2578 0 73.8101C0 74.3624 0.447715 74.8101 1 74.8101V72.8101ZM7.57165 73.8483L7.24454 74.7933L7.24454 74.7933L7.57165 73.8483ZM10.0169 75.4434L10.8063 74.8295L10.8063 74.8295L10.0169 75.4434ZM10.6089 76.7136C10.2183 77.1041 10.2183 77.7372 10.6089 78.1278C10.9994 78.5183 11.6325 78.5183 12.0231 78.1278L10.6089 76.7136ZM10.7803 76.833C10.2659 77.0339 10.0116 77.6138 10.2125 78.1282C10.4134 78.6427 10.9932 78.8969 11.5077 78.696L10.7803 76.833ZM11.1635 77.7569L10.7999 76.8254L10.7998 76.8254L11.1635 77.7569ZM18.4512 76.647L18.0922 77.5803L18.0922 77.5803L18.4512 76.647ZM21.5364 78.0224L20.747 78.6364L20.747 78.6364L21.5364 78.0224ZM22.3578 78.9681L21.4741 79.4359L21.4741 79.4359L22.3578 78.9681ZM22.5944 78.5223C22.0633 78.3706 21.5098 78.6781 21.3581 79.2091C21.2064 79.7402 21.5139 80.2936 22.0449 80.4454L22.5944 78.5223ZM33.665 50.8861C34.1417 51.1651 34.7542 51.0049 35.0332 50.5283C35.3122 50.0517 35.152 49.4391 34.6754 49.1601L33.665 50.8861ZM28.6996 46.6276L28.1449 47.4596L28.1449 47.4596L28.6996 46.6276ZM24.7264 43.4443L23.9936 44.1247L23.9936 44.1247L24.7264 43.4443ZM19.4798 35.8043L20.4392 35.5221L20.4392 35.5221L19.4798 35.8043ZM17.4047 32.4559L16.5678 33.0032L16.5678 33.0032L17.4047 32.4559ZM15.7188 27.7517L14.7265 27.8757L14.7265 27.8757L15.7188 27.7517ZM16.9331 22.6937L17.8889 22.9878L16.9331 22.6937ZM17.8174 18.296L18.7936 18.513L18.7936 18.513L17.8174 18.296ZM21.2247 10.0784L22.0073 10.7009L22.0073 10.7009L21.2247 10.0784ZM26.2237 6.14047L26.6776 7.03151L26.6776 7.03151L26.2237 6.14047ZM28.9826 4.98505L29.2502 5.94856L29.2502 5.94856L28.9826 4.98505ZM31.2934 3.98289L31.1146 2.99902L31.1146 2.99902L31.2934 3.98289ZM35.4436 2.68598L35.554 3.67986L35.4436 2.68598ZM40.9141 1.89605L41.2505 2.83779L41.2505 2.83779L40.9141 1.89605ZM57.6207 3.0161L57.9797 2.08276L57.9797 2.08276L57.6207 3.0161ZM61.759 4.48986L61.3118 5.38429L61.3118 5.38429L61.759 4.48986ZM66.5929 7.74392L65.8993 8.46424L65.8993 8.46427L66.5929 7.74392ZM66.6391 7.78834L67.3327 7.06801L67.3327 7.06799L66.6391 7.78834ZM69.7762 10.9272L69.0435 11.6077L69.0435 11.6077L69.7762 10.9272ZM72.9006 16.1738L73.8319 15.8094L73.8319 15.8094L72.9006 16.1738ZM75.4473 29.4259L74.4653 29.6147L74.4653 29.6147L75.4473 29.4259ZM73.4783 42.9727L72.5639 42.5679L72.5639 42.568L73.4783 42.9727ZM73.4273 43.0879L72.5129 42.6832L72.5129 42.6832L73.4273 43.0879ZM68.8095 51.0371L68.0901 50.3425L68.0901 50.3425L68.8095 51.0371ZM61.5232 54.1614L61.6472 55.1537L61.6472 55.1537L61.5232 54.1614ZM52.4095 54.468L52.31 53.4729L52.31 53.4729L52.4095 54.468ZM43.2957 53.4187L43.5534 52.4524L43.5534 52.4524L43.2957 53.4187ZM36.092 50.4476L35.733 51.3809L35.733 51.3809L36.092 50.4476ZM30.4693 46.5936C30.0274 46.2622 29.4006 46.3517 29.0693 46.7936C28.7379 47.2354 28.8274 47.8622 29.2693 48.1936L30.4693 46.5936ZM22.4965 19.5321C22.5679 18.9845 22.1819 18.4826 21.6342 18.4112C21.0866 18.3397 20.5847 18.7258 20.5133 19.2734L22.4965 19.5321ZM21.4121 27.962L22.4115 27.9263L21.4121 27.962ZM21.8762 30.241L20.8768 30.278L21.8762 30.241ZM23.0827 33.3295L22.3301 33.988L22.3301 33.988L23.0827 33.3295ZM26.2382 36.7583L25.4489 37.3723L26.2382 36.7583ZM28.0016 39.0786L27.2277 39.7118L28.0016 39.0786ZM30.1879 41.1668L30.8693 40.435L30.8693 40.435L30.1879 41.1668ZM34.452 43.9512L34.9071 43.0607L34.452 43.9512ZM38.0716 45.8486L37.6129 46.7372L38.0716 45.8486ZM39.438 46.4313L38.9398 47.2984L38.9398 47.2984L39.438 46.4313ZM40.7631 47.1944L40.3858 48.1205L40.7631 47.1944ZM41.8098 47.5037L41.077 48.1842L41.8098 47.5037ZM39.5102 44.9257L40.1979 44.1997L40.1979 44.1997L39.5102 44.9257ZM37.0249 42.956L36.3313 43.6763L37.0249 42.956ZM31.8997 37.8721L31.3273 38.692L31.8997 37.8721ZM30.1363 35.8302L30.9256 35.2163L30.1363 35.8302ZM28.6874 33.7781L27.8504 34.3253L28.6874 33.7781ZM27.7232 32.3962L28.4435 31.7026L28.4435 31.7026L27.7232 32.3962ZM26.759 31.1485L25.8465 31.5575L26.759 31.1485ZM25.4906 28.6323L26.4158 28.2527L25.4906 28.6323ZM24.3872 25.6675L25.2738 25.2049L24.3872 25.6675ZM22.4846 21.491L21.6952 22.1049L21.6952 22.1049L22.4846 21.491ZM21.8683 22.7041C21.8923 22.1523 21.4645 21.6856 20.9127 21.6616C20.3609 21.6376 19.8942 22.0655 19.8702 22.6172L21.8683 22.7041ZM27.6751 46.0181C27.8911 45.5098 27.6542 44.9226 27.1459 44.7066C26.6376 44.4906 26.0505 44.7275 25.8344 45.2358L27.6751 46.0181ZM25.1225 49.0298L26.0387 49.4307L26.0387 49.4307L25.1225 49.0298ZM24.0295 52.083L24.9713 52.4193L24.9713 52.4193L24.0295 52.083ZM23.2207 53.8172L22.3428 53.3384L23.2207 53.8172ZM22.6232 55.4057L21.7657 54.8912L21.7657 54.8912L22.6232 55.4057ZM19.7741 61.0019L20.7074 61.3609L19.7741 61.0019ZM17.7338 63.9603L18.5895 64.4778L17.7338 63.9603ZM16.393 66.671L17.3328 67.0127L16.393 66.671ZM15.2199 69.6877L14.236 69.5088L15.2199 69.6877ZM14.0322 72.4858L13.1859 71.953L14.0322 72.4858ZM13.3763 73.7537L14.2656 74.211L13.3763 73.7537ZM13.0412 74.7447L12.1092 74.3822L12.1092 74.3822L13.0412 74.7447ZM12.7205 75.2693L11.7274 75.1525L11.7274 75.1525L12.7205 75.2693ZM12.072 76.3186L11.1529 75.9247L12.072 76.3186ZM11.9336 76.6465L11.1527 76.0218L11.9336 76.6465ZM13.2452 75.5317L13.8264 76.3454L13.8264 76.3454L13.2452 75.5317ZM18.3678 70.9264L17.6278 70.2538L18.3678 70.9264ZM19.5409 69.5638L18.76 68.9391L19.5409 69.5638ZM20.9837 68.3105L20.2404 67.6415L20.9837 68.3105ZM32.9193 56.8048L33.5268 57.5991L33.5268 57.5991L32.9193 56.8048ZM36.1401 53.2999L36.9294 53.9138L36.9294 53.9138L36.1401 53.2999ZM37.3497 51.8935L38.0186 52.6368L37.3497 51.8935ZM36.723 50.5819L37.2087 49.7078L36.723 50.5819ZM32.7226 49.161L32.5057 50.1372L32.7226 49.161ZM29.2177 47.4632L28.3697 47.9932L29.2177 47.4632ZM27.9352 46.2099L27.067 46.706L27.067 46.706L27.9352 46.2099ZM26.0261 46.5596L25.0732 46.2564L25.0732 46.2564L26.0261 46.5596ZM23.1537 53.5494C23.038 54.0894 23.382 54.621 23.922 54.7367C24.462 54.8524 24.9936 54.5085 25.1094 53.9685L23.1537 53.5494ZM36.1205 53.3251L35.3311 52.7111L35.3311 52.7111L36.1205 53.3251ZM1 74.8101C1.75731 74.8101 2.43284 74.6536 2.98875 74.5273C3.57124 74.395 4.02849 74.2943 4.51507 74.2943V72.2943C3.76933 72.2943 3.09804 72.4515 2.54558 72.577C1.96652 72.7086 1.50067 72.8101 1 72.8101V74.8101ZM4.51507 74.2943C5.52503 74.2943 6.26295 74.4535 7.24454 74.7933L7.89876 72.9033C6.7637 72.5104 5.80089 72.2943 4.51507 72.2943V74.2943ZM7.24454 74.7933C7.96933 75.0442 8.84299 75.5629 9.22756 76.0574L10.8063 74.8295C10.0871 73.9049 8.80419 73.2167 7.89876 72.9033L7.24454 74.7933ZM9.22756 76.0574C9.31838 76.1741 9.4964 76.3639 9.62742 76.5069C9.78429 76.6782 9.95374 76.8664 10.1026 77.0495C10.2609 77.2444 10.3536 77.3827 10.3903 77.4568C10.4105 77.4976 10.3805 77.4536 10.3703 77.35C10.3582 77.227 10.3738 76.9486 10.6089 76.7136L12.0231 78.1278C12.3415 77.8093 12.3864 77.4159 12.3607 77.1543C12.3369 76.9121 12.2503 76.706 12.1825 76.5691C12.0432 76.2878 11.8338 76.0087 11.6548 75.7883C11.4662 75.5562 11.2628 75.3313 11.1022 75.156C11.0177 75.0638 10.9518 74.9926 10.8938 74.9286C10.8659 74.8979 10.8442 74.8736 10.8276 74.8545C10.8096 74.8338 10.8043 74.827 10.8063 74.8295L9.22756 76.0574ZM11.5077 78.696L11.5272 78.6884L10.7998 76.8254L10.7803 76.833L11.5077 78.696ZM11.527 78.6885C12.0632 78.4793 12.6855 78.2368 13.3099 78.0453C13.9478 77.8496 14.5083 77.7329 14.9265 77.7329V75.7329C14.2056 75.7329 13.4164 75.9207 12.7234 76.1332C12.0169 76.35 11.3273 76.6195 10.7999 76.8254L11.527 78.6885ZM14.9265 77.7329C15.5443 77.7329 16.3224 77.5849 16.8075 77.5264C17.3913 77.456 17.7926 77.4651 18.0922 77.5803L18.8101 75.7136C18.0256 75.4119 17.2051 75.4639 16.568 75.5408C15.8321 75.6295 15.39 75.7329 14.9265 75.7329V77.7329ZM18.0922 77.5803C18.3666 77.6859 18.6745 77.775 18.9496 77.8537C19.24 77.9367 19.5094 78.0124 19.7692 78.1009C20.3232 78.2896 20.6178 78.4703 20.747 78.6364L22.3257 77.4085C21.8098 76.7452 21.0149 76.4123 20.4139 76.2077C20.0964 76.0996 19.772 76.0087 19.4998 75.9308C19.2123 75.8486 18.9887 75.7823 18.8101 75.7136L18.0922 77.5803ZM20.747 78.6364C20.9153 78.8526 21.1455 79.0716 21.2575 79.1853C21.4095 79.3397 21.459 79.4074 21.4741 79.4359L23.2416 78.5002C23.0759 78.187 22.8353 77.9372 22.6823 77.7818C22.4892 77.5858 22.3991 77.5028 22.3257 77.4085L20.747 78.6364ZM21.4741 79.4359C21.6012 79.6762 21.7555 79.8639 21.8679 79.9893C21.9244 80.0524 21.9774 80.1072 22.0099 80.141C22.0562 80.1892 22.0479 80.1821 22.0317 80.1618C22.026 80.1547 21.9747 80.092 21.9284 79.9933C21.9015 79.936 21.7352 79.5799 21.9317 79.1628C22.1439 78.7123 22.5636 78.6274 22.6569 78.6122C22.7822 78.5917 22.8758 78.6033 22.8874 78.6046C22.9253 78.6088 22.9294 78.6129 22.8578 78.5947C22.7982 78.5797 22.714 78.5565 22.5944 78.5223L22.0449 80.4454C22.2512 80.5043 22.4905 80.5728 22.6666 80.5923C22.7142 80.5976 22.8351 80.6096 22.9798 80.5859C23.0926 80.5675 23.524 80.4758 23.741 80.0151C23.9422 79.5879 23.7739 79.2182 23.739 79.1439C23.6848 79.0282 23.6196 78.9452 23.5951 78.9145C23.5413 78.847 23.4756 78.7798 23.4524 78.7556C23.4153 78.717 23.3867 78.6872 23.357 78.6542C23.2972 78.5875 23.2613 78.5374 23.2416 78.5002L21.4741 79.4359ZM34.6754 49.1601C33.9877 48.7575 33.3029 48.35 32.6226 47.9359L31.5827 49.6443C32.2742 50.0652 32.969 50.4787 33.665 50.8861L34.6754 49.1601ZM32.6226 47.9359C31.4839 47.2428 30.3585 46.5317 29.2543 45.7955L28.1449 47.4596C29.2761 48.2138 30.4252 48.9397 31.5827 49.6443L32.6226 47.9359ZM29.2543 45.7955C28.0057 44.9631 26.3961 43.7728 25.4592 42.7638L23.9936 44.1247C25.0999 45.3162 26.8765 46.614 28.1449 47.4596L29.2543 45.7955ZM25.4592 42.7638C23.3427 40.4845 21.246 38.2654 20.4392 35.5221L18.5204 36.0865C19.486 39.3695 21.9658 41.941 23.9936 44.1247L25.4592 42.7638ZM20.4392 35.5221C20.2243 34.7916 19.7877 34.0922 19.3829 33.5082C19.1758 33.2093 18.9581 32.9148 18.7634 32.6487C18.5638 32.3758 18.3881 32.1326 18.2417 31.9087L16.5678 33.0032C16.7464 33.2764 16.951 33.5586 17.1493 33.8296C17.3525 34.1074 17.5505 34.3753 17.7391 34.6475C18.126 35.2057 18.4018 35.6833 18.5204 36.0865L20.4392 35.5221ZM18.2417 31.9087C17.3995 30.6206 16.9045 29.175 16.711 27.6276L14.7265 27.8757C14.9536 29.6925 15.5418 31.4341 16.5678 33.0032L18.2417 31.9087ZM16.711 27.6276C16.64 27.0594 16.7726 26.3406 17.0344 25.489C17.162 25.0741 17.3104 24.657 17.462 24.2336C17.6104 23.8192 17.7652 23.39 17.8889 22.9878L15.9774 22.3997C15.8698 22.7491 15.7325 23.1309 15.5791 23.5593C15.4289 23.9788 15.2656 24.4366 15.1227 24.9012C14.8437 25.8086 14.6004 26.8671 14.7265 27.8757L16.711 27.6276ZM17.8889 22.9878C18.1156 22.2512 18.2684 21.4434 18.3999 20.6819C18.5354 19.8973 18.6464 19.1751 18.7936 18.513L16.8412 18.0791C16.6803 18.8031 16.5556 19.6092 16.4291 20.3416C16.2986 21.0972 16.1633 21.7953 15.9774 22.3997L17.8889 22.9878ZM18.7936 18.513C19.4387 15.6101 20.2732 12.8809 22.0073 10.7009L20.4421 9.45583C18.4083 12.0126 17.4977 15.125 16.8412 18.0791L18.7936 18.513ZM22.0073 10.7009C23.2255 9.16943 24.8688 7.95298 26.6776 7.03151L25.7698 5.24943C23.7741 6.26609 21.8806 7.64741 20.4421 9.45583L22.0073 10.7009ZM26.6776 7.03151C27.6121 6.55548 28.3392 6.20162 29.2502 5.94856L28.7149 4.02153C27.5935 4.33305 26.7107 4.77008 25.7698 5.24943L26.6776 7.03151ZM29.2502 5.94856C29.7748 5.80284 30.2671 5.51977 30.6051 5.3372C30.9966 5.12569 31.2485 5.00745 31.4723 4.96676L31.1146 2.99902C30.5359 3.10423 30.0227 3.37866 29.6545 3.57755C29.2328 3.80538 28.9709 3.95044 28.7149 4.02153L29.2502 5.94856ZM31.4723 4.96676C32.326 4.81154 33.0993 4.48156 33.7392 4.22338C34.4138 3.95119 34.9696 3.74479 35.554 3.67986L35.3331 1.6921C34.4446 1.79083 33.6571 2.09982 32.9909 2.36865C32.2898 2.65148 31.7245 2.88812 31.1146 2.99902L31.4723 4.96676ZM35.554 3.67986C36.1028 3.61889 36.6478 3.50392 37.098 3.42142C37.5719 3.33459 37.9875 3.27333 38.4029 3.27333V1.27333C37.7991 1.27333 37.2374 1.36258 36.7376 1.45417C36.214 1.5501 35.7889 1.64145 35.3331 1.6921L35.554 3.67986ZM38.4029 3.27333C39.3861 3.27333 40.2301 3.20222 41.2505 2.83779L40.5778 0.954304C39.8538 1.21288 39.2617 1.27333 38.4029 1.27333V3.27333ZM41.2505 2.83779C43.4162 2.06431 46.0036 2 48.507 2V0C46.0396 0 43.1157 0.0479083 40.5778 0.954304L41.2505 2.83779ZM48.507 2C51.4064 2 54.4507 2.8683 57.2617 3.94945L57.9797 2.08276C55.0856 0.969665 51.7707 0 48.507 0V2ZM57.2617 3.94945C58.0003 4.23351 58.7499 4.44927 59.4108 4.65675C60.0909 4.87027 60.7133 5.08506 61.3118 5.38429L62.2062 3.59543C61.4599 3.22227 60.7128 2.96928 60.0098 2.74857C59.2875 2.52181 58.6404 2.33689 57.9797 2.08276L57.2617 3.94945ZM61.3118 5.38429C62.9064 6.18159 64.6694 7.27989 65.8993 8.46424L67.2866 7.0236C65.8536 5.64367 63.8932 4.43892 62.2062 3.59543L61.3118 5.38429ZM65.8993 8.46427L65.9454 8.50869L67.3327 7.06799L67.2865 7.02358L65.8993 8.46427ZM65.9454 8.50867C67.0413 9.56394 68.0305 10.5168 69.0435 11.6077L70.509 10.2468C69.4522 9.10866 68.4235 8.11842 67.3327 7.06801L65.9454 8.50867ZM69.0435 11.6077C70.23 12.8855 71.3054 14.8413 71.9694 16.5382L73.8319 15.8094C73.1134 13.9733 71.924 11.7706 70.509 10.2468L69.0435 11.6077ZM71.9694 16.5382C72.7591 18.5565 73.1691 20.6684 73.4874 22.8699C73.8 25.0317 74.0326 27.365 74.4653 29.6147L76.4293 29.237C76.0069 27.0409 75.798 24.8737 75.4668 22.5837C75.1415 20.3335 74.7056 18.0423 73.8319 15.8094L71.9694 16.5382ZM74.4653 29.6147C74.7863 31.2843 74.9778 32.9826 74.9778 34.6725H76.9778C76.9778 32.8332 76.7696 31.0067 76.4293 29.237L74.4653 29.6147ZM74.9778 34.6725C74.9778 37.2785 73.7299 39.9336 72.5639 42.5679L74.3928 43.3774C75.4939 40.8896 76.9778 37.7962 76.9778 34.6725H74.9778ZM72.5639 42.568L72.5129 42.6832L74.3418 43.4926L74.3928 43.3773L72.5639 42.568ZM72.5129 42.6832C71.3219 45.3745 69.9737 48.3916 68.0901 50.3425L69.5289 51.7317C71.7072 49.4756 73.1896 46.0962 74.3418 43.4926L72.5129 42.6832ZM68.0901 50.3425C67.0318 51.4385 66.1241 52.0284 65.1445 52.4032C64.133 52.7903 62.9953 52.9696 61.3992 53.1692L61.6472 55.1537C63.2295 54.9559 64.5932 54.7557 65.8593 54.2712C67.1573 53.7744 68.3035 53.0008 69.5289 51.7317L68.0901 50.3425ZM61.3992 53.1692C59.9676 53.3481 58.5039 53.3509 56.9732 53.3428C55.463 53.3348 53.8797 53.316 52.31 53.4729L52.509 55.463C53.9527 55.3186 55.4216 55.3346 56.9626 55.3428C58.483 55.3508 60.0695 55.3509 61.6472 55.1537L61.3992 53.1692ZM52.31 53.4729C51.3231 53.5716 50.3771 53.4798 49.2026 53.4798V55.4798C50.1341 55.4798 51.3992 55.574 52.509 55.463L52.31 53.4729ZM49.2026 53.4798C47.1731 53.4798 45.7118 53.028 43.5534 52.4524L43.0381 54.3849C45.1173 54.9394 46.8562 55.4798 49.2026 55.4798V53.4798ZM43.5534 52.4524C42.3784 52.1391 41.2447 51.6583 40.0708 51.1203C38.9196 50.5926 37.6975 49.9937 36.451 49.5142L35.733 51.3809C36.9018 51.8304 38.021 52.3809 39.2375 52.9384C40.4315 53.4857 41.692 54.0259 43.0381 54.3849L43.5534 52.4524ZM36.451 49.5142C34.9322 48.9301 33.7403 48.506 32.5589 47.9002L31.6464 49.6799C32.9498 50.3483 34.2804 50.8222 35.733 51.3809L36.451 49.5142ZM32.5589 47.9002C31.8689 47.5465 31.1873 47.1321 30.4693 46.5936L29.2693 48.1936C30.084 48.8046 30.8627 49.2781 31.6464 49.6799L32.5589 47.9002ZM20.2265 25.0642C20.2265 25.6097 20.2678 26.1274 20.3101 26.608C20.3533 27.0996 20.3965 27.5419 20.4127 27.9977L22.4115 27.9263C22.3928 27.4048 22.3432 26.8965 22.3024 26.4326C22.2606 25.9577 22.2265 25.5151 22.2265 25.0642H20.2265ZM20.4127 27.9977C20.4314 28.5206 20.5801 29.0221 20.6825 29.3797C20.799 29.7865 20.8683 30.0461 20.8768 30.278L22.8755 30.204C22.8562 29.6849 22.707 29.1844 22.6052 28.829C22.4893 28.4245 22.4199 28.162 22.4115 27.9263L20.4127 27.9977ZM20.8768 30.278C20.9223 31.5064 21.5156 33.0572 22.3301 33.988L23.8353 32.671C23.3357 32.1001 22.9047 30.9933 22.8755 30.204L20.8768 30.278ZM22.3301 33.988C22.8649 34.5993 23.4414 35.1758 23.9684 35.7182C24.5061 36.2716 25.006 36.8028 25.4489 37.3723L27.0276 36.1444C26.5126 35.4823 25.9472 34.8848 25.4028 34.3245C24.8478 33.7532 24.3254 33.2312 23.8353 32.671L22.3301 33.988ZM25.4489 37.3723C25.9799 38.055 26.6184 38.9671 27.2277 39.7118L28.7756 38.4454C28.1511 37.6821 27.6889 36.9947 27.0276 36.1444L25.4489 37.3723ZM27.2277 39.7118C27.9156 40.5527 28.8726 41.3087 29.5064 41.8987L30.8693 40.435C30.0452 39.6677 29.3516 39.1493 28.7756 38.4454L27.2277 39.7118ZM29.5064 41.8987C30.8632 43.1619 32.4719 44.0622 33.9969 44.8416L34.9071 43.0607C33.4089 42.295 32.011 41.498 30.8693 40.435L29.5064 41.8987ZM33.9969 44.8416C35.2413 45.4776 36.3395 46.08 37.6129 46.7372L38.5302 44.96C37.3779 44.3652 36.0897 43.6652 34.9071 43.0607L33.9969 44.8416ZM37.6129 46.7372C37.8974 46.884 38.1979 46.9912 38.411 47.0704C38.6488 47.1588 38.8082 47.2227 38.9398 47.2984L39.9361 45.5642C39.6427 45.3956 39.3376 45.2811 39.1079 45.1957C38.8535 45.1012 38.6834 45.039 38.5302 44.96L37.6129 46.7372ZM38.9398 47.2984C39.1418 47.4144 39.3026 47.5244 39.5598 47.6844C39.7913 47.8285 40.0697 47.9917 40.3858 48.1205L41.1404 46.2683C40.9831 46.2042 40.819 46.1123 40.6163 45.9862C40.4394 45.8762 40.1744 45.701 39.9361 45.5642L38.9398 47.2984ZM40.3858 48.1205C40.4835 48.1603 40.7998 48.2836 41.0811 48.3795C41.2103 48.4235 41.3814 48.4789 41.5257 48.5091C41.5649 48.5173 41.6224 48.5281 41.6883 48.5342C41.7272 48.5379 41.8847 48.5535 42.0704 48.504C42.1675 48.4782 42.3648 48.4108 42.5418 48.2268C42.7506 48.0097 42.839 47.7265 42.8214 47.4605C42.8066 47.2368 42.7217 47.0758 42.6771 47.0016C42.6272 46.9186 42.5751 46.8583 42.5426 46.8233L41.077 48.1842C41.0535 48.1588 41.0081 48.1071 40.9627 48.0317C40.9227 47.9651 40.8402 47.8107 40.8258 47.5926C40.8085 47.3321 40.8952 47.0536 41.1005 46.8402C41.2739 46.6599 41.4658 46.5953 41.5556 46.5714C41.7267 46.5258 41.8626 46.5418 41.8738 46.5429C41.9119 46.5464 41.9354 46.5516 41.9356 46.5516C41.9374 46.552 41.9194 46.548 41.8748 46.5345C41.8339 46.5222 41.7837 46.5059 41.7262 46.4863C41.4905 46.406 41.2116 46.2973 41.1404 46.2683L40.3858 48.1205ZM42.5426 46.8233C42.3506 46.6165 42.1852 46.3942 41.9744 46.115C41.7745 45.8502 41.5347 45.536 41.2382 45.2395L39.824 46.6537C40.0113 46.8411 40.1769 47.0534 40.3783 47.3202C40.5688 47.5725 40.8009 47.8868 41.077 48.1842L42.5426 46.8233ZM41.2382 45.2395C40.9186 44.9199 40.5587 44.5415 40.1979 44.1997L38.8224 45.6516C39.1603 45.9718 39.4501 46.2798 39.824 46.6537L41.2382 45.2395ZM40.1979 44.1997C39.7601 43.7849 39.2709 43.4355 38.8507 43.1326C38.4105 42.8151 38.0374 42.5428 37.7185 42.2357L36.3313 43.6763C36.7689 44.0978 37.258 44.4498 37.681 44.7548C38.1241 45.0743 38.4993 45.3455 38.8224 45.6516L40.1979 44.1997ZM37.7185 42.2357C36.7446 41.2979 35.9315 40.3969 34.9271 39.3924L33.5128 40.8066C34.3961 41.6899 35.3738 42.7543 36.3313 43.6763L37.7185 42.2357ZM34.9271 39.3924C34.2727 38.7381 33.47 37.7487 32.4721 37.0521L31.3273 38.692C32.1349 39.2558 32.6357 39.9295 33.5128 40.8066L34.9271 39.3924ZM32.4721 37.0521C32.2164 36.8736 31.9846 36.6282 31.7327 36.3058C31.6068 36.1445 31.4843 35.9753 31.3499 35.7893C31.2193 35.6084 31.0762 35.4099 30.9256 35.2163L29.3469 36.4442C29.4718 36.6047 29.5936 36.7734 29.7286 36.9603C29.8599 37.1421 30.0038 37.3414 30.1566 37.5369C30.462 37.928 30.8365 38.3494 31.3273 38.692L32.4721 37.0521ZM30.9256 35.2163C30.4245 34.572 29.9818 33.9303 29.5244 33.2308L27.8504 34.3253C28.3248 35.0509 28.8004 35.7415 29.3469 36.4442L30.9256 35.2163ZM29.5244 33.2308C29.2873 32.8683 28.9218 32.1993 28.4435 31.7026L27.0029 33.0899C27.3073 33.406 27.4716 33.7459 27.8504 34.3253L29.5244 33.2308ZM28.4435 31.7026C28.0657 31.3102 27.7928 31.0099 27.6715 30.7394L25.8465 31.5575C26.1377 32.2071 26.6871 32.762 27.0029 33.0899L28.4435 31.7026ZM27.6715 30.7394C27.4601 30.2677 27.2109 29.8186 26.9937 29.419C26.769 29.0056 26.5722 28.6339 26.4158 28.2527L24.5654 29.0118C24.7676 29.5047 25.0127 29.9623 25.2365 30.374C25.4678 30.7996 25.6735 31.1716 25.8465 31.5575L27.6715 30.7394ZM26.4158 28.2527C26.2348 27.8115 26.0963 27.3549 25.9207 26.821C25.7528 26.3102 25.5555 25.7449 25.2738 25.2049L23.5006 26.1301C23.7015 26.5151 23.857 26.9475 24.0208 27.4455C24.1769 27.9204 24.3487 28.4836 24.5654 29.0118L26.4158 28.2527ZM25.2738 25.2049C24.9516 24.5874 24.7516 23.9528 24.4662 23.1805C24.1947 22.4458 23.8568 21.6264 23.2739 20.8771L21.6952 22.1049C22.0803 22.6 22.3327 23.1771 22.5901 23.8737C22.8336 24.5326 23.1009 25.364 23.5006 26.1301L25.2738 25.2049ZM20.2777 22.1051C20.235 23.0952 20.2265 24.0823 20.2265 25.0642H22.2265C22.2265 24.0915 22.235 23.1381 22.2759 22.1912L20.2777 22.1051ZM23.2739 20.8771C23.0697 20.6145 22.7485 20.3199 22.2844 20.2449C21.7952 20.1657 21.4069 20.3699 21.1703 20.5617C20.9429 20.7462 20.7782 20.9766 20.6648 21.1605C20.5454 21.3541 20.4452 21.5588 20.3644 21.7388L22.1891 22.5576C22.2517 22.4182 22.3115 22.3005 22.3671 22.2104C22.4286 22.1105 22.4541 22.0957 22.4301 22.1151C22.3969 22.142 22.2255 22.2613 21.9651 22.2192C21.7296 22.1811 21.6488 22.0453 21.6952 22.1049L23.2739 20.8771ZM20.3644 21.7388C20.2831 21.9201 20.2126 22.0964 20.1589 22.2313C20.1307 22.3017 20.1088 22.357 20.0894 22.4038C20.08 22.4265 20.0726 22.444 20.0667 22.4573C20.0605 22.4712 20.0579 22.4765 20.0583 22.4758C20.0586 22.4752 20.0606 22.4712 20.0641 22.4647C20.0675 22.4586 20.0739 22.4471 20.0834 22.4322C20.0926 22.4175 20.1451 22.3329 20.2438 22.245C20.3111 22.1851 20.668 21.8873 21.1789 22.0404C21.6414 22.1791 21.7903 22.5671 21.8101 22.6177C21.8739 22.7804 21.8673 22.9096 21.8653 22.8457C21.8648 22.8296 21.8647 22.7868 21.8683 22.7041L19.8702 22.6172C19.8658 22.7195 19.8635 22.8195 19.8663 22.9089C19.8676 22.9507 19.87 23.1483 19.948 23.3475C19.975 23.4163 20.1324 23.8147 20.6047 23.9562C21.1254 24.1123 21.4935 23.8101 21.5733 23.7391C21.6844 23.6402 21.7506 23.5378 21.7749 23.4993C21.8071 23.4483 21.8319 23.4008 21.8488 23.3669C21.9071 23.2497 21.9711 23.0861 22.0166 22.9721C22.0711 22.8354 22.1273 22.6955 22.1891 22.5576L20.3644 21.7388ZM20.5133 19.2734C20.3892 20.2253 20.3181 21.1686 20.2777 22.1051L22.2759 22.1912C22.3144 21.2974 22.3816 20.4134 22.4965 19.5321L20.5133 19.2734ZM24.2064 48.629C23.7528 49.6658 23.4211 50.8133 23.0878 51.7466L24.9713 52.4193C25.3686 51.3067 25.6181 50.3921 26.0387 49.4307L24.2064 48.629ZM23.0878 51.7466C22.8939 52.2895 22.6455 52.7835 22.3428 53.3384L24.0986 54.2961C24.417 53.7123 24.7245 53.1102 24.9713 52.4193L23.0878 51.7466ZM22.3428 53.3384C22.1422 53.7061 22.0418 54.0928 21.9738 54.3324C21.8961 54.6064 21.8443 54.7602 21.7657 54.8912L23.4807 55.9202C23.7115 55.5355 23.8223 55.1447 23.8979 54.8782C23.9833 54.5772 24.0269 54.4276 24.0986 54.2961L22.3428 53.3384ZM21.7657 54.8912C21.4122 55.4804 21.1576 56.0791 20.9359 56.6265C20.7065 57.1926 20.5197 57.6827 20.2787 58.1647L22.0676 59.0591C22.3541 58.4861 22.5812 57.8915 22.7895 57.3775C23.0053 56.8448 23.212 56.368 23.4807 55.9202L21.7657 54.8912ZM20.2787 58.1647C20.1128 58.4966 19.8869 58.8245 19.6065 59.25C19.3475 59.6431 19.0412 60.1219 18.8407 60.6429L20.7074 61.3609C20.8215 61.0644 21.0147 60.748 21.2767 60.3504C21.5172 59.9852 21.8337 59.5268 22.0676 59.0591L20.2787 58.1647ZM18.8407 60.6429C18.6744 61.0755 18.4384 61.1858 17.7845 61.8396L19.1987 63.2538C19.5489 62.9037 20.3396 62.3174 20.7074 61.3609L18.8407 60.6429ZM17.7845 61.8396C17.4495 62.1746 17.2699 62.5591 17.1537 62.8304C17.0168 63.1498 16.9712 63.289 16.8781 63.4429L18.5895 64.4778C18.7784 64.1655 18.9175 63.792 18.992 63.6182C19.0871 63.3963 19.1454 63.3071 19.1987 63.2538L17.7845 61.8396ZM16.8781 63.4429C16.3507 64.3151 15.8194 65.3224 15.4533 66.3293L17.3328 67.0127C17.6386 66.172 18.1002 65.2871 18.5895 64.4778L16.8781 63.4429ZM15.4533 66.3293C15.2951 66.7642 15.0788 67.2016 14.8295 67.7623C14.5991 68.2804 14.3487 68.8892 14.236 69.5088L16.2038 69.8666C16.2703 69.5006 16.4325 69.0795 16.6569 68.5749C16.8624 68.1128 17.143 67.5347 17.3328 67.0127L15.4533 66.3293ZM14.236 69.5088C14.0955 70.2816 13.6696 71.1849 13.1859 71.953L14.8784 73.0186C15.4267 72.1478 15.9985 70.9956 16.2038 69.8666L14.236 69.5088ZM13.1859 71.953C12.9219 72.3723 12.6453 72.9887 12.4871 73.2963L14.2656 74.211C14.5198 73.7168 14.6719 73.3465 14.8784 73.0186L13.1859 71.953ZM12.4871 73.2963C12.3568 73.5496 12.2832 73.7957 12.2329 73.9733C12.1755 74.1756 12.1507 74.2755 12.1092 74.3822L13.9732 75.1071C14.0593 74.8856 14.1198 74.65 14.157 74.5188C14.2012 74.363 14.2313 74.2777 14.2656 74.211L12.4871 73.2963ZM12.1092 74.3822C12.1361 74.3128 12.1644 74.2778 12.1541 74.292C12.1403 74.3111 12.1316 74.3208 12.0798 74.3859C12.0425 74.4327 11.9717 74.5223 11.908 74.6305C11.8441 74.7389 11.7549 74.9187 11.7274 75.1525L13.7137 75.3862C13.6966 75.5314 13.6439 75.6241 13.6311 75.6458C13.6184 75.6673 13.6132 75.6709 13.6447 75.6313C13.6616 75.61 13.7247 75.5331 13.7744 75.4645C13.8276 75.391 13.9109 75.2672 13.9732 75.1071L12.1092 74.3822ZM11.7274 75.1525C11.7387 75.0567 11.793 75.0307 11.6719 75.1744C11.6388 75.2137 11.5228 75.3453 11.4475 75.4409C11.3572 75.5557 11.2413 75.7184 11.1529 75.9247L12.9912 76.7125C12.9824 76.7331 12.9809 76.7264 13.0191 76.678C13.0723 76.6104 13.0988 76.5849 13.2015 76.463C13.352 76.2843 13.651 75.9194 13.7137 75.3862L11.7274 75.1525ZM11.1529 75.9247C11.1663 75.8934 11.1638 75.904 11.1116 75.9907C11.092 76.0231 11.071 76.0573 11.0486 76.0936C11.0275 76.1278 11.0035 76.1666 10.983 76.2006C10.9659 76.2288 10.9365 76.2779 10.9115 76.3259C10.9081 76.3323 10.8639 76.4139 10.8325 76.5181C10.823 76.5497 10.8061 76.6109 10.7966 76.6898C10.7896 76.7481 10.7707 76.9311 10.848 77.1474C10.9503 77.4332 11.2056 77.7147 11.596 77.7921C11.8857 77.8495 12.1091 77.7619 12.1758 77.7342C12.329 77.6705 12.4299 77.5817 12.4422 77.5713C12.4764 77.5424 12.5026 77.5165 12.5167 77.5023C12.546 77.4726 12.5715 77.4438 12.5883 77.4243C12.6243 77.3828 12.667 77.3305 12.7144 77.2712L11.1527 76.0218C11.1095 76.0758 11.0863 76.1036 11.0765 76.115C11.0705 76.1219 11.0781 76.1127 11.0941 76.0965C11.1014 76.0891 11.1221 76.0684 11.1519 76.0432C11.1596 76.0367 11.2571 75.9502 11.4078 75.8876C11.4733 75.8603 11.6958 75.773 11.9847 75.8302C12.3744 75.9074 12.6291 76.1885 12.7311 76.4735C12.8082 76.689 12.7892 76.8709 12.7824 76.9278C12.7731 77.0053 12.7565 77.0649 12.7477 77.0944C12.7295 77.1548 12.7097 77.1987 12.7037 77.2119C12.6952 77.2306 12.6883 77.244 12.6854 77.2496C12.6776 77.2646 12.6766 77.265 12.6949 77.2348C12.7096 77.2104 12.7278 77.181 12.7512 77.143C12.7733 77.1071 12.7991 77.0652 12.8244 77.0233C12.8617 76.9614 12.9405 76.8308 12.9912 76.7125L11.1529 75.9247ZM12.7144 77.2712C12.9629 76.9606 13.3294 76.7004 13.8264 76.3454L12.6639 74.7179C12.2411 75.0199 11.6116 75.4483 11.1527 76.0218L12.7144 77.2712ZM13.8264 76.3454C15.025 75.4892 16.3294 74.5903 17.4645 73.4552L16.0503 72.041C15.0584 73.0329 13.9113 73.8269 12.6639 74.7179L13.8264 76.3454ZM17.4645 73.4552C17.7731 73.1466 18.0623 72.814 18.3297 72.5001C18.6052 72.1768 18.8515 71.8809 19.1077 71.5991L17.6278 70.2538C17.3431 70.5669 17.0627 70.9034 16.8074 71.203C16.5442 71.5119 16.2986 71.7927 16.0503 72.041L17.4645 73.4552ZM19.1077 71.5991C19.5157 71.1503 19.9358 70.671 20.3218 70.1885L18.76 68.9391C18.4103 69.3763 18.0208 69.8214 17.6278 70.2538L19.1077 71.5991ZM20.3218 70.1885C20.4191 70.0669 20.5726 69.9408 20.8474 69.7343C21.0829 69.5574 21.4388 69.2996 21.727 68.9795L20.2404 67.6415C20.1101 67.7863 19.9331 67.9197 19.646 68.1354C19.3983 68.3215 19.0396 68.5897 18.76 68.9391L20.3218 70.1885ZM21.727 68.9795C23.2221 67.3183 24.6993 65.754 26.2887 64.1647L24.8745 62.7504C23.2583 64.3666 21.7569 65.9565 20.2404 67.6415L21.727 68.9795ZM26.2887 64.1647C26.9374 63.5159 27.6628 62.9304 28.4371 62.3068C29.197 61.6949 30.0063 61.0446 30.7409 60.31L29.3267 58.8958C28.681 59.5414 27.9573 60.1253 27.1827 60.7491C26.4226 61.3613 25.612 62.013 24.8745 62.7504L26.2887 64.1647ZM30.7409 60.31C31.7499 59.301 32.5486 58.3472 33.5268 57.5991L32.3119 56.0104C31.1945 56.8649 30.174 58.0484 29.3267 58.8958L30.7409 60.31ZM36.9294 53.9138C37.3342 53.3934 37.6515 52.9672 38.0186 52.6368L36.6807 51.1502C36.1483 51.6294 35.7018 52.2345 35.3507 52.6859L36.9294 53.9138ZM38.0186 52.6368C38.0372 52.6201 38.0514 52.6099 38.1071 52.5725C38.1252 52.5603 38.1914 52.5167 38.255 52.4639C38.3159 52.4133 38.4585 52.2879 38.5576 52.0793C38.8233 51.5201 38.5131 51.0573 38.4365 50.9498C38.3411 50.8159 38.2107 50.6845 38.1151 50.5889L36.7009 52.0031C36.8181 52.1204 36.8255 52.1354 36.8074 52.11C36.7966 52.0948 36.7301 52.0024 36.6908 51.8525C36.6418 51.6657 36.648 51.4381 36.7511 51.221C36.8356 51.0431 36.9521 50.9461 36.9773 50.9252C37.0052 50.902 37.026 50.8894 36.9909 50.9129C36.9401 50.9471 36.8167 51.0279 36.6807 51.1502L38.0186 52.6368ZM38.1151 50.5889C38.0468 50.5206 38.0201 50.4741 37.8541 50.274C37.7343 50.1295 37.5191 49.8802 37.2087 49.7078L36.2374 51.4561C36.2 51.4353 36.2161 51.4319 36.3149 51.551C36.3714 51.6191 36.393 51.6486 36.4698 51.7431C36.5294 51.8163 36.6086 51.9108 36.7009 52.0031L38.1151 50.5889ZM37.2087 49.7078C35.839 48.9468 34.355 48.4994 32.9395 48.1848L32.5057 50.1372C33.8296 50.4314 35.1049 50.8269 36.2374 51.4561L37.2087 49.7078ZM32.9395 48.1848C32.3051 48.0438 31.6998 47.9222 31.1518 47.7085C30.6114 47.4977 30.2607 47.2452 30.0657 46.9332L28.3697 47.9932C28.8878 48.8221 29.6907 49.2854 30.4251 49.5718C31.1519 49.8552 31.9425 50.012 32.5057 50.1372L32.9395 48.1848ZM30.0657 46.9332C29.7978 46.5046 29.3839 46.2051 29.1778 46.0466C28.8988 45.832 28.8289 45.7582 28.8035 45.7137L27.067 46.706C27.3261 47.1594 27.744 47.467 27.9585 47.6319C28.2458 47.8529 28.3309 47.9312 28.3697 47.9932L30.0657 46.9332ZM26.0387 49.4307C26.1818 49.1036 26.2869 48.7298 26.3578 48.5101C26.4416 48.2505 26.5082 48.0922 26.5885 47.9738L24.933 46.8516C24.6859 47.2161 24.5498 47.6006 24.4545 47.8958C24.3463 48.231 24.2959 48.4243 24.2064 48.629L26.0387 49.4307ZM26.7175 47.7036C26.8027 47.4232 26.8899 47.1429 26.979 46.8628L25.0732 46.2564C24.9814 46.5448 24.8917 46.8332 24.804 47.1218L26.7175 47.7036ZM26.979 46.8628C27.0193 46.7363 27.0687 46.6536 27.1067 46.6062C27.1454 46.5579 27.1632 46.5565 27.1424 46.5654L26.3497 44.7292C25.7025 45.0086 25.2782 45.6121 25.0732 46.2564L26.979 46.8628ZM27.1424 46.5654C27.1276 46.5718 27.0995 46.5804 27.0616 46.5807C27.0227 46.5811 26.9897 46.5727 26.9676 46.5632C26.9241 46.5444 26.9763 46.5473 27.067 46.706L28.8035 45.7137C28.5598 45.2873 28.2155 44.9234 27.7601 44.7269C27.2887 44.5235 26.788 44.54 26.3497 44.7292L27.1424 46.5654ZM35.3507 52.6859L35.3311 52.7111L36.9098 53.939L36.9294 53.9138L35.3507 52.6859ZM35.3311 52.7111C34.3829 53.9303 33.4113 55.1697 32.3119 56.0104L33.5268 57.5991C34.8691 56.5726 35.9973 55.1123 36.9098 53.939L35.3311 52.7111ZM26.5857 47.9779L26.596 47.9628L24.9461 46.8324L24.9357 46.8475L26.5857 47.9779ZM26.5933 47.9668C26.9762 47.4137 27.3949 46.6714 27.6651 46.0416L25.8271 45.2531C25.6139 45.7501 25.2622 46.3758 24.9489 46.8284L26.5933 47.9668ZM36.9098 53.939C36.9164 53.9306 36.9228 53.9223 36.9294 53.9138L35.3507 52.6859C35.3442 52.6942 35.3376 52.7028 35.3311 52.7111L36.9098 53.939ZM25.8344 45.2358C25.832 45.2416 25.8295 45.2474 25.8271 45.2531L27.6651 46.0416C27.6685 46.0337 27.6718 46.0258 27.6751 46.0181L25.8344 45.2358ZM24.804 47.1218C24.1593 49.2419 23.6207 51.3701 23.1537 53.5494L25.1094 53.9685C25.5661 51.8368 26.0912 49.7634 26.7175 47.7036L24.804 47.1218ZM24.9489 46.8284C24.9435 46.8361 24.9382 46.8438 24.933 46.8516L26.5885 47.9738C26.59 47.9715 26.5916 47.9692 26.5933 47.9668L24.9489 46.8284Z" fill="black"/>
</svg>
